<mxfile host="app.diagrams.net" modified="2024-05-14T06:03:50.150Z" agent="Mozilla/5.0 (Macintosh; Intel Mac OS X 10_15_7) AppleWebKit/537.36 (KHTML, like Gecko) Chrome/124.0.0.0 Safari/537.36" version="24.4.0" etag="t3AFzm60ww0rCW2sql1X" type="github">
  <diagram name="Page-1" id="G5aqJZyheEX3Ba9CCHwR">
    <mxGraphModel>
      <root>
        <mxCell id="0" />
        <mxCell id="1" parent="0" />
      </root>
    </mxGraphModel>
  </diagram>
</mxfile>
